<svg xmlns="http://www.w3.org/2000/svg" viewBox="0 0 120 120" role="img" aria-labelledby="title desc">
  <title id="title">Raven</title>
  <desc id="desc">A raven messenger symbol.</desc>
  <path d="M21 66c21-25 45-33 79-20-15 1-28 6-39 16 15 2 27 9 38 21-23-8-43-7-61 4l14-17c-10 0-20-1-31-4Z" fill="#16191a"/>
  <path d="M42 54c12-20 31-26 57-15-13 3-24 10-34 20l-23-5Z" fill="#202626"/>
  <path d="M31 68c15 12 27 17 47 18-23 7-43 4-63-10l16-8Z" fill="#0b0b0b"/>
  <path d="M88 42 108 31 96 49l-8-7Z" fill="#d2a646"/>
  <circle cx="86" cy="40" r="4" fill="#b3152a"/>
  <path d="M39 87c3 8 8 13 16 17" stroke="#d2a646" stroke-width="5" stroke-linecap="round"/>
</svg>
