<svg xmlns="http://www.w3.org/2000/svg" viewBox="0 0 120 120" role="img" aria-labelledby="title desc">
  <title id="title">Smoke bomb</title>
  <desc id="desc">A smoke bomb symbol.</desc>
  <circle cx="59" cy="74" r="25" fill="#242725"/>
  <path d="M43 50c-6-14 4-26 19-20 9-11 26-7 28 8 13 1 19 18 8 27 12 7 8 25-7 28-5 14-25 17-34 6-13 9-30-1-29-16-15-6-14-28 1-33Z" fill="#d9d2bd" opacity=".8"/>
  <path d="M37 52c6-8 17-10 29-4M48 83c8 7 21 8 32 2M69 35c8 1 14 5 17 12" fill="none" stroke="#f3ead0" stroke-width="5" stroke-linecap="round" opacity=".75"/>
  <path d="M46 70h28l8 23H38l8-23Z" fill="#b3152a"/>
  <path d="M48 70h24v12H48z" fill="#1ca49a"/>
</svg>
