<svg xmlns="http://www.w3.org/2000/svg" viewBox="0 0 260 460" role="img" aria-labelledby="title desc">
  <title id="title">Smooth target character</title>
  <desc id="desc">A smooth cinematic target in a tailored coat under neon light.</desc>
  <defs>
    <linearGradient id="coat" x1="0" x2="1" y1="0" y2="1">
      <stop offset="0" stop-color="#f3ead0"/>
      <stop offset=".18" stop-color="#c6bda1"/>
      <stop offset=".34" stop-color="#171719"/>
      <stop offset="1" stop-color="#040506"/>
    </linearGradient>
    <linearGradient id="rim" x1="0" x2="1">
      <stop offset="0" stop-color="#00e6d0"/>
      <stop offset=".65" stop-color="#ffd166"/>
      <stop offset="1" stop-color="#ff3d6e"/>
    </linearGradient>
    <filter id="rimGlow" x="-25%" y="-25%" width="150%" height="150%">
      <feGaussianBlur stdDeviation="4" result="blur"/>
      <feMerge>
        <feMergeNode in="blur"/>
        <feMergeNode in="SourceGraphic"/>
      </feMerge>
    </filter>
  </defs>

  <ellipse cx="130" cy="424" rx="82" ry="20" fill="#000" opacity=".42"/>
  <path d="M130 24c35 0 62 29 62 66 0 32-22 62-52 68-39 8-75-20-75-62 0-41 28-72 65-72Z" fill="#d9d2bd"/>
  <path d="M71 72c22-35 59-52 112-33 9 19 13 39 12 60-35-24-78-28-129-13 1-5 3-9 5-14Z" fill="#111313"/>
  <path d="M84 118c28 26 62 29 102 9-10 30-27 49-52 53-22-3-39-24-50-62Z" fill="#050606"/>
  <path d="M92 154c27 18 58 20 94 4 32 41 49 109 52 205-51 39-111 50-179 31 1-104 12-184 33-240Z" fill="url(#coat)"/>
  <path d="M92 172c33 18 65 19 96 3" fill="none" stroke="#f3ead0" stroke-opacity=".38" stroke-width="7" stroke-linecap="round"/>
  <path d="M77 236c-36 34-55 75-58 123 24 13 48 10 72-8 12-35 20-74 24-117Z" fill="#080909"/>
  <path d="M200 234c29 39 43 85 44 139-24 10-46 4-67-18-2-44 5-84 23-121Z" fill="#080909"/>
  <path d="M86 285h106l-18 26H105Z" fill="#ff3d6e" filter="url(#rimGlow)"/>
  <path d="M88 389c-13 23-22 45-27 67h58l18-65Z" fill="#030404"/>
  <path d="M159 390c20 19 35 41 47 66h-58l-30-69Z" fill="#030404"/>
  <path d="M214 138c32 56 45 119 38 190" fill="none" stroke="url(#rim)" stroke-opacity=".52" stroke-width="6" stroke-linecap="round"/>
</svg>
