<svg xmlns="http://www.w3.org/2000/svg" viewBox="0 0 120 120" role="img" aria-labelledby="title desc">
  <title id="title">Venom vial</title>
  <desc id="desc">A glowing vial symbol.</desc>
  <path d="M48 20h25v16H48z" fill="#d9d2bd"/>
  <path d="M52 33h17v18l19 27c9 13 0 31-15 31H48c-15 0-24-18-15-31l19-27V33Z" fill="#f3ead0"/>
  <path d="M43 73h35l8 12c5 8 0 18-10 18H45c-10 0-15-10-10-18l8-12Z" fill="#1ca49a"/>
  <path d="M47 80c8 6 21 7 35 1" stroke="#baf4df" stroke-width="5" stroke-linecap="round" opacity=".8"/>
  <path d="M48 20h25v8H48z" fill="#b3152a"/>
  <circle cx="57" cy="88" r="4" fill="#baf4df"/>
  <circle cx="71" cy="93" r="3" fill="#baf4df"/>
</svg>
